<svg width="85" height="85" viewBox="0 0 85 85" fill="none" xmlns="http://www.w3.org/2000/svg">
<circle cx="42.5" cy="42.5" r="42.5" fill="#F0F0F0"/>
<path d="M42.4999 19.5835C29.8499 19.5835 19.5833 29.8502 19.5833 42.5002C19.5833 55.1502 29.8499 65.4168 42.4999 65.4168C55.1499 65.4168 65.4166 55.1502 65.4166 42.5002C65.4166 29.8502 55.1499 19.5835 42.4999 19.5835ZM24.1666 42.5002C24.1666 41.1022 24.3499 39.7272 24.6478 38.421L35.602 49.3752V51.6668C35.602 54.1877 37.6645 56.2502 40.1853 56.2502V60.6731C31.1791 59.5272 24.1666 51.8272 24.1666 42.5002ZM55.9978 54.8752C55.402 53.0189 53.7062 51.6668 51.6437 51.6668H49.352V44.7918C49.352 43.5314 48.3208 42.5002 47.0603 42.5002H33.3103V37.9168H37.8937C39.1541 37.9168 40.1853 36.8856 40.1853 35.6252V31.0418H44.7687C47.2895 31.0418 49.352 28.9793 49.352 26.4585V25.5189C56.0666 28.2231 60.8333 34.8231 60.8333 42.5002C60.8333 47.2668 58.977 51.621 55.9978 54.8752Z" fill="black"/>
</svg>
