<svg width="63" height="63" viewBox="0 0 63 63" fill="none" xmlns="http://www.w3.org/2000/svg">
<circle cx="31.5" cy="31.5" r="31.5" fill="#F0F0F0"/>
<path d="M28.5956 33.3215C29.5977 33.3215 30.4177 34.1414 30.4177 35.1435C30.4177 36.1456 29.5977 36.9656 28.5956 36.9656C27.5935 36.9656 26.7735 36.1456 26.7735 35.1435C26.7735 34.1414 27.5935 33.3215 28.5956 33.3215ZM28.5956 29.6773C25.571 29.6773 23.1294 32.1189 23.1294 35.1435C23.1294 38.1681 25.571 40.6097 28.5956 40.6097C31.6202 40.6097 34.0618 38.1681 34.0618 35.1435C34.0618 32.1189 31.6202 29.6773 28.5956 29.6773ZM44.0831 26.0332L46.0691 21.6421L50.4603 19.656L46.0691 17.67L44.0831 13.2788L42.0971 17.67L37.7059 19.656L42.0971 21.6421L44.0831 26.0332ZM49.1484 32.8113L47.7272 29.6773L46.306 32.8113L43.1721 34.2325L46.306 35.6537L47.7272 38.7876L49.1484 35.6537L52.2824 34.2325L49.1484 32.8113ZM39.9835 35.1435C39.9835 34.9249 39.9835 34.688 39.9653 34.4694L43.5 31.7909L38.9449 23.9014L34.8635 25.6141C34.4991 25.3773 34.0982 25.1404 33.6974 24.94L33.1508 20.567H24.0405L23.4938 24.9582C23.093 25.1586 22.7104 25.3955 22.3277 25.6324L18.2463 23.9014L13.6912 31.7909L17.226 34.4694C17.2077 34.688 17.2077 34.9249 17.2077 35.1435C17.2077 35.3622 17.2077 35.599 17.226 35.8177L13.6912 38.4961L18.2463 46.3856L22.3277 44.6729C22.6921 44.9097 23.093 45.1466 23.4938 45.347L24.0405 49.72H33.1508L33.6974 45.3288C34.0982 45.1284 34.4809 44.9097 34.8635 44.6547L38.9449 46.3674L43.5 38.4779L39.9653 35.7995C39.9835 35.599 39.9835 35.3622 39.9835 35.1435ZM37.3961 41.7758L34.244 40.4457C33.2236 41.5389 31.8753 42.3406 30.363 42.6868L29.9257 46.0759H27.2655L26.8464 42.6868C25.3341 42.3406 23.9858 41.5389 22.9654 40.4457L19.8133 41.7758L18.4832 39.4618L21.198 37.4029C20.9794 36.6923 20.8701 35.9452 20.8701 35.1617C20.8701 34.3783 20.9794 33.6312 21.198 32.9206L18.4832 30.8617L19.8133 28.5477L22.9654 29.8778C23.9858 28.7845 25.3341 27.9828 26.8464 27.6366L27.2655 24.2112H29.9439L30.363 27.6002C31.8753 27.9464 33.2236 28.7481 34.244 29.8413L37.3961 28.5112L38.7263 30.8252L36.0114 32.8842C36.23 33.5948 36.3394 34.3418 36.3394 35.1253C36.3394 35.9088 36.23 36.6558 36.0114 37.3664L38.7263 39.4254L37.3961 41.7758Z" fill="black"/>
</svg>
