<svg width="50" height="50" viewBox="0 0 50 50" fill="none" xmlns="http://www.w3.org/2000/svg">
<g opacity="0.8">
<rect y="0.188675" width="49.8113" height="49.8113" rx="4" fill="#E27338"/>
</g>
<path d="M24.9058 8.49055C15.7405 8.49055 8.302 15.929 8.302 25.0943C8.302 34.2596 15.7405 41.6981 24.9058 41.6981C34.0711 41.6981 41.5095 34.2596 41.5095 25.0943C41.5095 15.929 34.0711 8.49055 24.9058 8.49055ZM11.6228 25.0943C11.6228 24.0815 11.7556 23.0853 11.9714 22.1389L19.908 30.0755V31.7358C19.908 33.5623 21.4024 35.0566 23.2288 35.0566V38.2611C16.7035 37.4309 11.6228 31.8521 11.6228 25.0943ZM34.6854 34.0604C34.2537 32.7155 33.025 31.7358 31.5307 31.7358H29.8703V26.7547C29.8703 25.8415 29.1231 25.0943 28.2099 25.0943H18.2477V21.7736H21.5684C22.4816 21.7736 23.2288 21.0264 23.2288 20.1132V16.7924H26.5495C28.376 16.7924 29.8703 15.2981 29.8703 13.4717V12.7909C34.7352 14.7502 38.1888 19.5321 38.1888 25.0943C38.1888 28.5479 36.8439 31.7026 34.6854 34.0604Z" fill="white"/>
</svg>
