<svg width="22" height="25" viewBox="0 0 22 25" fill="none" xmlns="http://www.w3.org/2000/svg">
<path d="M9.14787 4.69174C13.0552 2.70317 17.3868 4.03452 19.636 7.10752C21.9529 10.2744 21.7615 14.4957 19.1744 17.4635C16.6802 20.3253 12.4847 21.0858 9.09907 19.2606C7.15101 18.2099 5.81946 16.6101 5.14477 14.5041C4.47008 12.3982 4.65213 10.3514 5.61396 8.31399C4.56674 8.67077 3.54954 8.77405 2.46384 8.57031C2.35218 9.02286 2.21893 9.46226 2.13729 9.91011C1.60805 12.8517 2.12509 15.6026 3.78695 18.0944C5.52575 20.6999 7.95613 22.3195 11.0481 22.8753C13.9786 23.4058 16.6914 22.8105 19.1762 21.174C19.3742 21.0435 19.5713 20.9778 19.7852 21.113C19.8666 21.155 19.9307 21.2242 19.9662 21.3087C20.0017 21.3931 20.0064 21.4874 19.9795 21.5749C19.931 21.7192 19.8392 21.8451 19.7167 21.9355C18.1879 22.9906 16.4277 23.6621 14.5848 23.8931C11.6758 24.2592 8.94893 23.694 6.49415 22.0735C3.3797 20.0182 1.56301 17.1208 1.09007 13.4056C0.872808 11.6555 1.04979 9.87884 1.60805 8.20602C1.65261 8.06683 1.66196 7.91876 1.63526 7.77507C0.972772 4.56687 3.17888 1.35961 6.40407 0.832891C7.19181 0.706534 7.99632 0.730106 8.77533 0.902369C8.90666 0.921428 9.02825 0.982627 9.12183 1.07677C9.21541 1.1709 9.27591 1.29289 9.29425 1.42439C9.52293 2.41861 9.49353 3.45484 9.20886 4.43449C9.19103 4.50772 9.17508 4.58189 9.14787 4.69174ZM3.09631 7.66428L3.12821 7.7516C3.55236 7.72155 3.98401 7.73094 4.39971 7.65771C6.95489 7.18826 8.62238 5.08889 8.49007 2.46563C8.44784 1.62532 8.55575 1.76427 7.73937 1.70606C6.54854 1.61672 5.36608 1.96555 4.41417 2.68701C3.46226 3.40847 2.80642 4.4529 2.56988 5.62406C2.49106 5.99962 2.47604 6.39677 2.43663 6.78454L2.50982 6.79674C2.54924 6.74041 2.58959 6.68501 2.62806 6.62774C3.27317 5.65531 4.09198 4.81026 5.04343 4.13498C5.29773 3.95377 5.56141 3.78477 5.83072 3.62892C5.88204 3.59589 5.93947 3.57356 5.99961 3.56323C6.05974 3.55291 6.12133 3.55482 6.18072 3.56884C6.2401 3.58286 6.29604 3.60871 6.34522 3.64484C6.3944 3.68097 6.43579 3.72665 6.46694 3.77914C6.60675 4.00353 6.54201 4.26924 6.30648 4.43167C6.2483 4.4711 6.18636 4.50584 6.12631 4.54246C5.45058 4.95116 4.83477 5.45167 4.29648 6.02967C3.82977 6.52225 3.42657 7.0714 3.09631 7.66428ZM9.98302 9.89134C9.96535 9.88574 9.94708 9.88227 9.92859 9.88101C8.67211 9.88101 7.41469 9.88101 6.15728 9.87631C6.02778 9.87631 5.98649 9.93077 5.95553 10.0463C5.60037 11.3246 5.60037 12.6756 5.95553 13.9539C5.99024 14.0826 6.03622 14.1248 6.1751 14.1239C7.37716 14.1164 8.57921 14.1239 9.7822 14.1239C9.85821 14.1239 9.93422 14.1164 9.98302 14.1145V9.89134ZM16.0167 14.1164H16.2382C17.4168 14.1164 18.5954 14.1164 19.7749 14.122C19.9466 14.122 20.0161 14.0797 20.0564 13.9107C20.3872 12.6588 20.3872 11.3423 20.0564 10.0904C20.0133 9.9242 19.9429 9.87068 19.7749 9.87162C18.5804 9.87913 17.3858 9.87162 16.1922 9.87162C16.1237 9.87162 16.0552 9.88007 16.0158 9.88288L16.0167 14.1164ZM15.0268 9.89134H10.973C10.8454 11.2915 10.8472 12.7005 10.9786 14.1004H15.0268C15.1531 12.7021 15.1531 11.2953 15.0268 9.89697V9.89134ZM14.9095 8.9177C14.6983 7.65865 14.459 6.43057 13.7937 5.33582C13.6867 5.16397 13.5563 5.00786 13.4062 4.87201C13.1247 4.61382 12.8648 4.59973 12.602 4.87201C12.3747 5.10798 12.1803 5.37359 12.024 5.66162C11.6665 6.31885 11.4675 7.03053 11.3099 7.75535C11.2264 8.13936 11.1607 8.52618 11.0847 8.92334L14.9095 8.9177ZM11.0856 15.0731C11.308 16.3678 11.5482 17.6353 12.2633 18.7517C12.3456 18.8751 12.4426 18.9879 12.5523 19.0878C12.8723 19.3882 13.1406 19.3967 13.4456 19.0775C13.6373 18.8737 13.8025 18.6466 13.9373 18.4015C14.3127 17.7283 14.5182 16.9931 14.688 16.242C14.7734 15.858 14.8382 15.4693 14.9142 15.0693L11.0856 15.0731ZM10.1397 8.93085C10.3546 7.52251 10.6549 6.14985 11.3681 4.88609C9.31396 5.27386 6.60488 7.4981 6.41627 8.93085H10.1397ZM14.6111 4.85887C15.3618 6.15829 15.6433 7.53659 15.8629 8.92052H19.637C18.5738 6.80519 16.9326 5.46445 14.6111 4.85887ZM19.636 15.075H15.8919C15.7362 15.7801 15.6208 16.4749 15.4228 17.1405C15.2248 17.8062 14.9432 18.455 14.6983 19.1122C16.9335 18.531 18.5766 17.195 19.636 15.075ZM10.1407 15.075H6.39374C7.25892 17.1405 9.49037 18.793 11.3559 19.084C10.6493 17.8409 10.3565 16.4758 10.1407 15.0778V15.075Z" fill="black" stroke="black" stroke-width="0.9" stroke-miterlimit="10"/>
</svg>
