<svg width="85" height="85" viewBox="0 0 85 85" fill="none" xmlns="http://www.w3.org/2000/svg">
<circle cx="42.5" cy="42.5" r="42.5" fill="#F0F0F0"/>
<path d="M41.9664 60.564C38.4974 60.5528 35.1096 59.5116 32.2314 57.5721C29.3533 55.6326 27.1141 52.882 25.797 49.6681C24.48 46.4541 24.1442 42.9212 24.8321 39.5161C25.52 36.1111 27.2008 32.9868 29.6619 30.5383C32.1229 28.0899 35.2537 26.4273 38.6583 25.7608C42.0629 25.0944 45.5884 25.4539 48.789 26.7941C51.9895 28.1342 54.7214 30.3947 56.639 33.2897C58.5567 36.1847 59.574 39.5842 59.5624 43.0583C59.536 47.713 57.67 52.1678 54.3725 55.4484C51.0751 58.729 46.6145 60.5683 41.9664 60.564ZM32.9769 32.2357C33.3485 32.2357 33.7224 32.2357 34.0963 32.2357C35.0122 32.2335 35.8997 32.5537 36.6038 33.1402C37.308 33.7267 37.784 34.5423 37.9486 35.4446C38.0217 35.986 38.0528 36.5323 38.0416 37.0785C38.0597 37.7207 38.1956 37.8682 38.8369 37.9068C40.1478 37.9623 41.3867 38.5228 42.2947 39.4713C43.2026 40.4198 43.7096 41.683 43.7096 42.997C43.7096 44.3109 43.2026 45.5741 42.2947 46.5226C41.3867 47.4712 40.1478 48.0317 38.8369 48.0871C38.2976 48.1144 38.0687 48.3141 38.037 48.8723C38.0037 49.6916 37.7117 50.4793 37.2031 51.1219C36.6946 51.7646 35.9956 52.2291 35.2067 52.4488C34.6748 52.5673 34.1314 52.6267 33.5865 52.6258C32.9792 52.6531 32.3696 52.6258 31.6354 52.6258C34.085 55.1584 36.9131 56.5926 40.3076 57.0533C40.3076 56.1274 40.3076 55.2378 40.3076 54.3596C40.2984 53.3172 40.6993 52.3131 41.4236 51.5644C42.1479 50.8157 43.1374 50.3826 44.1781 50.3587C45.2771 50.3066 45.9229 49.6643 45.9705 48.5796C46.0997 45.6703 48.2661 43.587 51.1825 43.5598C52.635 43.5598 54.0898 43.5598 55.5424 43.5598H56.1588C56.2337 41.7725 55.9621 39.9877 55.3588 38.304C55.1617 38.3584 55.0167 38.3925 54.8762 38.4356C53.4712 38.869 52.0685 39.3138 50.6613 39.7337C48.0621 40.512 45.4221 39.3842 44.2574 37.0104C43.0926 34.6367 43.8042 31.8817 46.0045 30.275L46.8339 29.6577C41.6854 28.0329 37.1011 28.8567 32.9769 32.2357ZM31.8076 49.2309H33.9581C34.3909 49.2309 34.6379 49.0244 34.6379 48.5841C34.6681 47.5337 35.1084 46.537 35.8643 45.808C36.6201 45.0791 37.6313 44.676 38.6806 44.6854C39.0062 44.6874 39.3244 44.5878 39.5909 44.4003C39.8573 44.2128 40.0587 43.9467 40.1671 43.6392C40.6453 42.5045 39.834 41.3699 38.5288 41.2995C36.5233 41.2065 34.9756 39.8471 34.6764 37.8819C34.6246 37.3753 34.6102 36.8656 34.6334 36.3569C34.6334 35.8621 34.4068 35.6329 33.906 35.6352C32.68 35.6352 31.4518 35.6352 30.2259 35.6488C30.1343 35.6596 30.046 35.6898 29.9671 35.7376C29.8881 35.7853 29.8203 35.8495 29.7681 35.9257C27.4114 40.1467 27.2082 44.4721 29.1586 48.9018C29.2129 48.9881 29.286 49.061 29.3722 49.1152C29.4585 49.1694 29.5559 49.2035 29.6571 49.215C30.3596 49.2513 31.0779 49.2309 31.8076 49.2309ZM43.7113 57.0352C50.1854 56.3135 54.5453 51.212 55.5356 46.9706C54.0037 46.9706 52.4741 46.9434 50.9491 46.982C50.5265 46.9967 50.1264 47.1764 49.8343 47.4825C49.5422 47.7886 49.3811 48.197 49.3855 48.6204C49.3863 49.9675 48.8593 51.2612 47.9177 52.2232C46.9761 53.1853 45.6952 53.7389 44.3503 53.765C44.2646 53.7558 44.1779 53.7658 44.0966 53.7944C44.0153 53.8231 43.9414 53.8695 43.8804 53.9305C43.8193 53.9914 43.7727 54.0652 43.7438 54.1465C43.7149 54.2279 43.7046 54.3146 43.7135 54.4005C43.6954 55.2651 43.6999 56.132 43.6999 57.0352H43.7113ZM50.2035 31.4596C49.4512 31.9974 48.7306 32.508 48.0145 33.03C47.1421 33.6677 46.8815 34.6185 47.3098 35.5104C47.7381 36.4023 48.6694 36.7835 49.7027 36.4771C50.9106 36.1163 52.1116 35.7351 53.3148 35.3583C53.4689 35.3084 53.614 35.2381 53.793 35.1677C52.8306 33.7205 51.6099 32.4635 50.1922 31.4596H50.2035Z" fill="black"/>
<path d="M21.3497 57.977C21.3973 57.4891 21.4426 57.0102 21.4902 56.5291C21.5174 56.2477 21.5333 55.9641 21.5786 55.6849C21.6443 55.2546 21.8731 54.8662 22.2176 54.6007C22.5621 54.3351 22.9955 54.2128 23.4278 54.2593C23.86 54.3058 24.2576 54.5175 24.5379 54.8503C24.8182 55.1831 24.9595 55.6113 24.9324 56.0458C24.8077 57.7591 24.6468 59.4679 24.4973 61.179C24.4588 61.6329 24.4384 62.0868 24.3636 62.5406C24.205 63.4847 23.5251 64.0656 22.5802 63.9953C20.4546 63.844 18.3298 63.6609 16.2057 63.4461C15.1747 63.344 14.5062 62.5202 14.6195 61.6057C14.726 60.6276 15.5259 60.0035 16.5796 60.0829L18.4423 60.2282C18.4944 60.2206 18.5454 60.2069 18.5942 60.1873C18.5035 60.0375 18.4242 59.8968 18.3313 59.7629C14.1889 53.8581 12.4826 47.3088 13.1352 40.1603C13.5162 36.0107 14.8135 31.9978 16.9331 28.4119C17.4861 27.4656 18.4763 27.1456 19.3329 27.629C20.1895 28.1123 20.432 29.1494 19.8858 30.0958C17.4282 34.309 16.2248 39.1382 16.4175 44.0139C16.6102 48.8895 18.191 53.6083 20.9735 57.6139C21.0483 57.7228 21.1254 57.8295 21.2001 57.9339C21.2273 57.9565 21.2749 57.9543 21.3497 57.977Z" fill="black"/>
<path d="M62.6555 27.8994C62.574 28.7663 62.5286 29.488 62.4289 30.2233C62.293 31.2308 61.4704 31.889 60.5458 31.7687C59.6213 31.6484 58.989 30.8428 59.0729 29.8193C59.2391 27.8072 59.4098 25.795 59.585 23.7828C59.6983 22.5234 60.3963 21.9265 61.6653 22.0264C63.7523 22.1943 65.8416 22.3509 67.9219 22.5892C68.2152 22.6205 68.4949 22.7297 68.7319 22.9055C68.969 23.0813 69.1549 23.3173 69.2704 23.5892C69.3859 23.861 69.4268 24.1588 69.389 24.4518C69.3511 24.7447 69.2357 25.0223 69.0549 25.2557C68.8768 25.5023 68.6352 25.6959 68.3558 25.8157C68.0764 25.9356 67.7698 25.9774 67.4687 25.9365L65.4292 25.7776C66.1634 26.9849 66.9225 28.1105 67.557 29.2996C69.8896 33.662 71.0707 38.5489 70.9882 43.4967C70.9057 48.4445 69.5624 53.2892 67.0857 57.5712C66.7027 58.2383 66.1793 58.6332 65.3975 58.5901C64.1081 58.5175 63.4101 57.1695 64.0741 55.9985C65.1807 54.1083 66.0398 52.0833 66.6302 49.9734C68.6878 42.2099 67.4959 34.9957 62.9728 28.3329C62.9003 28.2149 62.8187 28.115 62.6555 27.8994Z" fill="black"/>
<path d="M57.0719 63.6574L55.5877 63.5122C55.3611 63.4918 55.1345 63.4872 54.9078 63.4577C53.802 63.3102 53.1154 62.5364 53.2219 61.5719C53.3284 60.6074 54.1532 59.9834 55.2614 60.0832C57.2374 60.2466 59.2111 60.41 61.1848 60.5847C62.4561 60.6959 63.068 61.3881 62.9682 62.643C62.8006 64.7308 62.6397 66.8209 62.4085 68.9019C62.3816 69.122 62.3116 69.3346 62.2027 69.5276C62.0937 69.7206 61.9478 69.8902 61.7734 70.0268C61.5989 70.1634 61.3993 70.2642 61.186 70.3235C60.9726 70.3828 60.7497 70.3994 60.53 70.3724C60.3102 70.3455 60.0979 70.2754 59.9051 70.1663C59.7124 70.0571 59.543 69.911 59.4067 69.7364C59.1313 69.3835 59.0072 68.9356 59.0615 68.4911C59.1137 67.8103 59.1703 67.1295 59.2315 66.3807C59.023 66.51 58.8803 66.5872 58.7466 66.6802C52.8548 70.8082 46.3036 72.5192 39.1542 71.8634C35.0255 71.4825 31.0312 70.1963 27.4544 68.0963C26.4619 67.5221 26.1288 66.5418 26.6251 65.6658C27.1213 64.7898 28.1365 64.5856 29.1404 65.1416C36.8246 69.383 44.6992 69.7801 52.7279 66.2309C54.0875 65.625 55.3497 64.7467 56.6527 63.991C56.7998 63.8894 56.9398 63.7779 57.0719 63.6574Z" fill="black"/>
<path d="M26.888 22.3371C27.7491 22.4188 28.4584 22.4664 29.1541 22.564C30.1874 22.6979 30.8468 23.4717 30.763 24.3976C30.6769 25.3666 29.8565 26.0157 28.8119 25.9317C26.8057 25.7638 24.7964 25.5906 22.7841 25.412C21.5265 25.3008 20.926 24.6019 21.0257 23.3356C21.1911 21.2659 21.3565 19.1963 21.5763 17.1334C21.5973 16.8727 21.6791 16.6206 21.8153 16.3974C21.9515 16.1742 22.1381 15.9862 22.3603 15.8486C22.5824 15.711 22.8337 15.6276 23.0939 15.6052C23.3541 15.5828 23.616 15.622 23.8583 15.7196C24.2044 15.8539 24.497 16.0983 24.691 16.4152C24.885 16.7321 24.9698 17.104 24.9324 17.4739C24.8893 18.1547 24.8259 18.8513 24.7624 19.6297C24.989 19.4822 25.1522 19.3869 25.3017 19.2848C31.1867 15.175 37.7221 13.4843 44.8488 14.1356C48.9777 14.5165 52.9719 15.8051 56.5463 17.9096C57.532 18.4814 57.8629 19.4709 57.3598 20.3423C56.8567 21.2137 55.8483 21.4112 54.8422 20.8529C47.5636 16.8089 40.044 16.2945 32.2835 19.3098C30.3602 20.0775 28.5462 21.0954 26.888 22.3371Z" fill="black"/>
</svg>
