<svg width="239" height="239" viewBox="0 0 239 239" fill="none" xmlns="http://www.w3.org/2000/svg">
<circle cx="119.5" cy="119.5" r="119.5" fill="#F0F0F0"/>
<g clip-path="url(#clip0_6856_184459)">
<path d="M119.4 171.422C109.145 171.389 99.1307 168.311 90.6225 162.577C82.1143 156.844 75.495 148.713 71.6015 139.212C67.708 129.711 66.7153 119.267 68.749 109.201C70.7826 99.1355 75.7512 89.8996 83.0265 82.6617C90.3017 75.4237 99.5568 70.5089 109.621 68.5387C119.686 66.5685 130.108 67.6314 139.569 71.593C149.03 75.5547 157.106 82.2371 162.775 90.7951C168.444 99.3532 171.451 109.403 171.417 119.672C171.339 133.432 165.823 146.602 156.075 156.299C146.327 165.997 133.141 171.435 119.4 171.422ZM92.8262 87.6794C93.9248 87.6794 95.0301 87.6794 96.1354 87.6794C98.8428 87.673 101.466 88.6193 103.548 90.3532C105.63 92.087 107.037 94.4981 107.523 97.1653C107.739 98.7658 107.831 100.381 107.798 101.995C107.852 103.894 108.254 104.33 110.149 104.444C114.025 104.608 117.687 106.265 120.371 109.069C123.055 111.873 124.554 115.607 124.554 119.491C124.554 123.376 123.055 127.11 120.371 129.914C117.687 132.718 114.025 134.375 110.149 134.538C108.555 134.619 107.878 135.209 107.785 136.86C107.686 139.282 106.823 141.61 105.32 143.51C103.816 145.41 101.75 146.783 99.4178 147.432C97.8453 147.783 96.2391 147.958 94.6282 147.956C92.8329 148.036 91.0309 147.956 88.8605 147.956C96.1019 155.442 104.462 159.682 114.497 161.044C114.497 158.307 114.497 155.677 114.497 153.081C114.47 149.999 115.655 147.031 117.796 144.818C119.937 142.604 122.862 141.324 125.938 141.254C129.187 141.099 131.097 139.201 131.237 135.994C131.619 127.394 138.023 121.235 146.645 121.155C150.939 121.155 155.239 121.155 159.533 121.155H161.355C161.577 115.872 160.774 110.595 158.991 105.618C158.408 105.779 157.979 105.88 157.564 106.007C153.41 107.288 149.264 108.603 145.104 109.844C137.42 112.145 129.616 108.811 126.173 101.794C122.73 94.7771 124.833 86.6329 131.338 81.8833L133.79 80.0585C118.57 75.2552 105.018 77.6904 92.8262 87.6794ZM89.3696 137.92H95.7268C97.0062 137.92 97.7364 137.309 97.7364 136.008C97.8257 132.902 99.1273 129.956 101.362 127.801C103.596 125.646 106.585 124.455 109.687 124.482C110.65 124.489 111.59 124.194 112.378 123.64C113.166 123.085 113.761 122.299 114.082 121.39C115.495 118.036 113.097 114.681 109.238 114.473C103.31 114.198 98.7346 110.18 97.8503 104.37C97.6971 102.873 97.6546 101.366 97.723 99.8621C97.723 98.3997 97.0531 97.7221 95.5727 97.7288C91.9486 97.7288 88.3179 97.7288 84.6938 97.7691C84.423 97.8008 84.1621 97.8903 83.9287 98.0314C83.6952 98.1726 83.4947 98.3622 83.3406 98.5875C76.3739 111.065 75.7732 123.852 81.5387 136.947C81.6993 137.202 81.9152 137.417 82.1703 137.578C82.4254 137.738 82.7132 137.839 83.0124 137.873C85.089 137.98 87.2126 137.92 89.3696 137.92ZM124.559 160.99C143.697 158.857 156.586 143.776 159.513 131.238C154.985 131.238 150.463 131.157 145.955 131.271C144.705 131.315 143.523 131.846 142.659 132.751C141.796 133.656 141.319 134.863 141.332 136.115C141.335 140.097 139.777 143.921 136.993 146.765C134.21 149.609 130.423 151.246 126.448 151.323C126.194 151.296 125.938 151.326 125.698 151.41C125.457 151.495 125.239 151.632 125.058 151.812C124.878 151.992 124.74 152.211 124.655 152.451C124.569 152.691 124.539 152.948 124.565 153.202C124.512 155.758 124.525 158.32 124.525 160.99H124.559ZM143.751 85.3851C141.527 86.975 139.396 88.4845 137.28 90.0274C134.701 91.9125 133.93 94.7234 135.196 97.3598C136.462 99.9963 139.216 101.123 142.27 100.218C145.841 99.151 149.391 98.024 152.948 96.9104C153.404 96.7628 153.832 96.5548 154.362 96.3468C151.517 92.0687 147.908 88.3527 143.717 85.3851H143.751Z" fill="#393939"/>
<path d="M58.4544 163.774C58.5951 162.332 58.7291 160.917 58.8698 159.494C58.9502 158.662 58.9971 157.824 59.131 156.999C59.3252 155.727 60.0018 154.578 61.0201 153.793C62.0384 153.008 63.3198 152.647 64.5975 152.784C65.8752 152.922 67.0507 153.548 67.8792 154.531C68.7077 155.515 69.1254 156.781 69.0453 158.065C68.6769 163.13 68.2012 168.182 67.7591 173.24C67.6452 174.582 67.5849 175.923 67.3639 177.265C66.895 180.056 64.8853 181.773 62.0919 181.565C55.8084 181.118 49.5271 180.577 43.2481 179.942C40.2001 179.64 38.224 177.205 38.5589 174.501C38.8738 171.61 41.2385 169.765 44.3534 170L49.8598 170.429C50.0137 170.407 50.1644 170.366 50.3087 170.308C50.0407 169.866 49.8063 169.45 49.5316 169.054C37.2861 151.598 32.2419 132.238 34.1712 111.106C35.2975 98.8389 39.1324 86.9761 45.3984 76.3756C47.0329 73.5782 49.9603 72.6323 52.4925 74.0612C55.0246 75.4901 55.7414 78.5559 54.127 81.3534C46.8618 93.8084 43.3043 108.084 43.8741 122.497C44.4438 136.91 49.1169 150.86 57.3424 162.701C57.5635 163.023 57.7913 163.338 58.0123 163.647C58.0927 163.714 58.2334 163.707 58.4544 163.774Z" fill="#393939"/>
<path d="M180.561 74.8597C180.319 77.4224 180.185 79.5557 179.891 81.7293C179.489 84.7079 177.057 86.6533 174.324 86.2978C171.591 85.9422 169.722 83.5607 169.97 80.5352C170.461 74.5869 170.966 68.6387 171.484 62.6905C171.819 58.9672 173.882 57.2029 177.633 57.4981C183.803 57.9945 189.979 58.4574 196.129 59.1618C196.996 59.2544 197.823 59.5773 198.523 60.097C199.224 60.6166 199.774 61.3143 200.115 62.1179C200.457 62.9215 200.578 63.8018 200.466 64.6679C200.354 65.5339 200.013 66.3543 199.478 67.0443C198.952 67.7734 198.237 68.3456 197.411 68.7C196.586 69.0545 195.679 69.1778 194.789 69.0569L188.76 68.5873C190.93 72.1562 193.175 75.4836 195.05 78.9989C201.946 91.8949 205.437 106.341 205.193 120.968C204.949 135.594 200.978 149.915 193.657 162.574C192.525 164.546 190.977 165.713 188.666 165.586C184.855 165.371 182.791 161.386 184.754 157.925C188.025 152.337 190.565 146.351 192.31 140.114C198.393 117.164 194.869 95.8373 181.498 76.1411C181.284 75.7922 181.043 75.497 180.561 74.8597Z" fill="#393939"/>
<path d="M164.055 180.566L159.667 180.136C158.997 180.076 158.327 180.063 157.658 179.975C154.388 179.539 152.359 177.252 152.674 174.401C152.988 171.55 155.427 169.705 158.703 170C164.544 170.483 170.379 170.966 176.213 171.482C179.971 171.811 181.78 173.857 181.485 177.567C180.99 183.739 180.514 189.918 179.831 196.069C179.751 196.72 179.544 197.348 179.222 197.919C178.9 198.489 178.469 198.991 177.953 199.395C177.437 199.798 176.847 200.096 176.217 200.272C175.586 200.447 174.927 200.496 174.277 200.416C173.628 200.337 173 200.13 172.43 199.807C171.861 199.484 171.36 199.052 170.957 198.536C170.143 197.493 169.776 196.169 169.936 194.855C170.091 192.842 170.258 190.83 170.439 188.616C169.823 188.998 169.401 189.227 169.005 189.502C151.588 201.704 132.222 206.763 111.087 204.824C98.8824 203.698 87.0745 199.896 76.5012 193.688C73.5671 191.99 72.5824 189.092 74.0494 186.503C75.5165 183.913 78.5176 183.31 81.4851 184.953C104.201 197.491 127.479 198.665 151.213 188.173C155.233 186.382 158.964 183.786 162.816 181.552C163.25 181.251 163.664 180.922 164.055 180.566Z" fill="#393939"/>
<path d="M74.8262 58.4171C77.3718 58.6586 79.4685 58.7995 81.5251 59.0879C84.5797 59.4837 86.5291 61.7713 86.2812 64.5084C86.0267 67.373 83.6017 69.2916 80.5135 69.0434C74.5828 68.5469 68.6432 68.0349 62.6947 67.5071C58.9768 67.1784 57.2016 65.1122 57.4964 61.3688C57.9854 55.2506 58.4744 49.1325 59.1242 43.0344C59.186 42.2637 59.428 41.5183 59.8306 40.8585C60.2331 40.1987 60.785 39.643 61.4416 39.2362C62.0982 38.8294 62.8411 38.5829 63.6103 38.5167C64.3796 38.4505 65.1536 38.5664 65.8699 38.855C66.8931 39.2519 67.758 39.9743 68.3316 40.9111C68.9052 41.8479 69.1559 42.9474 69.0452 44.0407C68.9179 46.0533 68.7303 48.1128 68.5427 50.4138C69.2126 49.9777 69.6949 49.696 70.1371 49.3941C87.5339 37.245 106.853 32.2471 127.921 34.1725C140.127 35.2983 151.934 39.1077 162.501 45.3287C165.415 47.0193 166.393 49.9442 164.905 52.5203C163.418 55.0964 160.437 55.68 157.463 54.0297C135.946 42.0751 113.717 40.5545 90.7761 49.4679C85.0907 51.7376 79.728 54.7465 74.8262 58.4171Z" fill="#393939"/>
</g>
<defs>
<clipPath id="clip0_6856_184459">
<rect width="171.457" height="171.457" fill="white" transform="translate(33.7715 33.7715)"/>
</clipPath>
</defs>
</svg>
