<svg width="190" height="190" viewBox="0 0 190 190" fill="none" xmlns="http://www.w3.org/2000/svg">
<circle cx="94.7393" cy="94.7256" r="94.7256" fill="#F0F0F0"/>
<path d="M136.461 38.0488H53.0169C51.3272 38.0488 49.9521 39.4238 49.9521 41.1136V148.992C49.9521 150.682 51.3272 152.057 53.0169 152.057H136.461C138.151 152.057 139.525 150.682 139.525 148.992V41.1136C139.525 39.423 138.151 38.0488 136.461 38.0488ZM135.847 148.379H53.6296V41.7265H135.847V148.379ZM94.7386 90.0156C105.554 90.0156 114.353 81.2166 114.353 70.4009C114.353 59.5853 105.554 50.7863 94.7386 50.7863C83.9229 50.7863 75.1248 59.5853 75.1248 70.4009C75.1248 81.2166 83.9229 90.0156 94.7386 90.0156ZM94.7386 54.4648C103.526 54.4648 110.675 61.6135 110.675 70.4016C110.675 74.1342 109.376 77.5632 107.22 80.2816L84.8583 57.9201C87.5776 55.7635 91.0066 54.4646 94.7392 54.4646L94.7386 54.4648ZM82.2581 60.5207L104.62 82.8801C101.9 85.0375 98.4714 86.3364 94.7388 86.3364C85.9515 86.3364 78.8029 79.1877 78.8029 70.3996C78.8029 66.6679 80.1009 63.2389 82.2583 60.5196L82.2581 60.5207ZM69.6085 106.962H77.1838C78.1997 106.962 79.0223 106.139 79.0223 105.124V97.5484C79.0223 96.5334 78.1997 95.7099 77.1838 95.7099H69.6085C68.5926 95.7099 67.77 96.5334 67.77 97.5484V105.124C67.7691 106.138 68.5926 106.962 69.6085 106.962ZM71.4469 99.386H75.3446V103.284H71.4469V99.386ZM83.1621 99.4963H119.869C120.884 99.4963 121.707 100.32 121.707 101.335C121.707 102.35 120.884 103.173 119.869 103.173L83.1621 103.174C82.1462 103.174 81.3236 102.351 81.3236 101.336C81.3227 100.32 82.1462 99.4963 83.1621 99.4963ZM69.6086 123.139H77.1839C78.1998 123.139 79.0224 122.315 79.0224 121.3V113.725C79.0224 112.71 78.1998 111.886 77.1839 111.886H69.6086C68.5927 111.886 67.7701 112.71 67.7701 113.725V121.3C67.7692 122.315 68.5927 123.139 69.6086 123.139ZM71.447 115.563H75.3447V119.461H71.447V115.563ZM121.709 117.512C121.709 118.527 120.885 119.35 119.87 119.35H83.1634C82.1475 119.35 81.3249 118.527 81.3249 117.512C81.3249 116.497 82.1475 115.673 83.1634 115.673H119.87C120.885 115.673 121.709 116.497 121.709 117.512ZM69.6082 139.316H77.1835C78.1994 139.316 79.022 138.492 79.022 137.477V129.902C79.022 128.887 78.1994 128.063 77.1835 128.063H69.6082C68.5923 128.063 67.7697 128.887 67.7697 129.902V137.477C67.7689 138.492 68.5923 139.316 69.6082 139.316ZM71.4467 131.74H75.3444V135.638H71.4467V131.74ZM121.708 133.689C121.708 134.704 120.885 135.528 119.87 135.528H83.163C82.1472 135.528 81.3246 134.704 81.3246 133.689C81.3246 132.674 82.1472 131.851 83.163 131.851H119.87C120.885 131.851 121.708 132.674 121.708 133.689Z" fill="black"/>
</svg>
