<svg width="239" height="239" viewBox="0 0 239 239" fill="none" xmlns="http://www.w3.org/2000/svg">
<circle cx="119.5" cy="119.5" r="119.5" fill="#F0F0F0"/>
<path d="M166.201 84.4741H119.5L107.825 72.7988H91.3042L114.655 96.1494H166.201V149.681L176.475 159.955C177.351 158.32 177.876 156.511 177.876 154.526V96.1494C177.876 89.728 172.623 84.4741 166.201 84.4741Z" fill="#393939"/>
<path d="M61.7072 61.7075L53.4761 69.9386L62.5828 79.0453C61.7072 80.6799 61.1818 82.4895 61.1818 84.4743L61.1234 154.526C61.1234 160.947 66.3773 166.201 72.7987 166.201H149.68L169.003 185.524L177.234 177.293L61.7072 61.7075ZM72.7987 154.526V89.3196L138.005 154.526H72.7987Z" fill="#393939"/>
</svg>
