<svg xmlns="http://www.w3.org/2000/svg" width="30" height="30" viewBox="0 25 30 25" fill="none">
<rect y="24" width="30" height="29" rx="5" fill="#EEEEEE"/>
<path d="M16 31.0798C19.06 31.5198 21.48 33.9398 21.92 36.9998H24.95C24.48 32.2798 20.72 28.5198 16 28.0498V31.0798ZM21.92 38.9998C21.48 42.0598 19.06 44.4798 16 44.9198V47.9498C20.72 47.4798 24.48 43.7198 24.95 38.9998H21.92ZM14 44.9198C10.61 44.4298 8 41.5198 8 37.9998C8 34.4798 10.61 31.5698 14 31.0798V28.0498C8.95 28.5498 5 32.8098 5 37.9998C5 43.1898 8.95 47.4498 14 47.9498V44.9198Z" fill="#6C757D"/>
</svg>