<svg width="20" height="20" viewBox="0 0 20 20" fill="none" xmlns="http://www.w3.org/2000/svg">
<path d="M14.2846 10.4762C17.2275 7.8 19.9989 5.29524 19.9989 3.14286C19.9989 1.38095 18.6179 0 16.856 0C15.8656 0 14.9036 0.466667 14.2846 1.19048C13.656 0.466667 12.7036 0 11.7132 0C9.95127 0 8.57031 1.38095 8.57031 3.14286C8.57031 5.29524 11.3417 7.8 14.2846 10.4762ZM11.7132 1.90476C12.1322 1.90476 12.5608 2.10476 12.837 2.42857L14.2846 4.13333L15.7322 2.42857C16.0084 2.10476 16.437 1.90476 16.856 1.90476C17.5608 1.90476 18.0941 2.4381 18.0941 3.14286C18.0941 4.20952 16.1513 6.1619 14.2846 7.89524C12.4179 6.1619 10.4751 4.2 10.4751 3.14286C10.4751 2.4381 11.0084 1.90476 11.7132 1.90476Z" fill="#212121"/>
<path d="M17.1429 13.3332H15.2381C15.2381 12.1903 14.5238 11.1618 13.4571 10.7618L7.59048 8.57129H0V19.0475H5.71429V17.6761L12.381 19.5237L20 17.1427V16.1903C20 14.6094 18.7238 13.3332 17.1429 13.3332ZM1.90476 17.1427V10.4761H3.80952V17.1427H1.90476ZM12.3524 17.5332L5.71429 15.6951V10.4761H7.24762L12.7905 12.5427C13.1143 12.6665 13.3333 12.9808 13.3333 13.3332C13.3333 13.3332 11.4381 13.2856 11.1429 13.1903L8.87619 12.438L8.27619 14.2475L10.5429 14.9999C11.0286 15.1618 11.5333 15.2475 12.0476 15.2475H17.1429C17.5143 15.2475 17.8476 15.4665 18 15.7808L12.3524 17.5332Z" fill="#212121"/>
</svg>
