<svg width="30" height="30" viewBox="0 0 30 30" fill="none" xmlns="http://www.w3.org/2000/svg">
<g opacity="0.8">
<rect width="30" height="30" rx="4" fill="#ED7D75"/>
<g clip-path="url(#clip0_6446_22713)">
<path d="M18.6769 15.5743C21.0855 13.3839 23.3537 11.3339 23.3537 9.57228C23.3537 8.13024 22.2235 7 20.7815 7C19.9708 7 19.1835 7.38194 18.6769 7.97435C18.1624 7.38194 17.3829 7 16.5723 7C15.1302 7 14 8.13024 14 9.57228C14 11.3339 16.2683 13.3839 18.6769 15.5743ZM16.5723 8.55896C16.9152 8.55896 17.266 8.72265 17.4921 8.98767L18.6769 10.3829L19.8617 8.98767C20.0877 8.72265 20.4385 8.55896 20.7815 8.55896C21.3583 8.55896 21.7948 8.99546 21.7948 9.57228C21.7948 10.4453 20.2046 12.0432 18.6769 13.4619C17.1491 12.0432 15.559 10.4375 15.559 9.57228C15.559 8.99546 15.9955 8.55896 16.5723 8.55896Z" fill="white"/>
<path d="M21.0306 17.8974H19.4717C19.4717 16.962 18.8871 16.1202 18.014 15.7928L13.2124 14H7V22.5743H11.6769V21.4518L17.1332 22.964L23.3691 21.0153V20.2358C23.3691 18.9419 22.3246 17.8974 21.0306 17.8974ZM8.55896 21.0153V15.559H10.1179V21.0153H8.55896ZM17.1098 21.3349L11.6769 19.8305V15.559H12.9318L17.4684 17.2504C17.7334 17.3518 17.9127 17.609 17.9127 17.8974C17.9127 17.8974 16.3615 17.8584 16.1199 17.7805L14.2647 17.1647L13.7737 18.6457L15.6288 19.2615C16.0264 19.394 16.4395 19.4641 16.8604 19.4641H21.0306C21.3346 19.4641 21.6074 19.6434 21.7321 19.9007L17.1098 21.3349Z" fill="white"/>
</g>
</g>
<defs>
<clipPath id="clip0_6446_22713">
<rect width="28.2857" height="28.2857" fill="white" transform="translate(1 1)"/>
</clipPath>
</defs>
</svg>
