<svg width="17" height="9" viewBox="0 0 17 9" fill="none" xmlns="http://www.w3.org/2000/svg">
<path d="M14.0306 3.89739H12.4717C12.4717 2.96202 11.8871 2.12018 11.014 1.7928L6.21245 0H0V8.57427H4.67687V7.45182L10.1332 8.964L16.3691 7.01531V6.23583C16.3691 4.9419 15.3246 3.89739 14.0306 3.89739ZM1.55896 7.01531V1.55896H3.11791V7.01531H1.55896ZM10.1098 7.33489L4.67687 5.8305V1.55896H5.93183L10.4684 3.25043C10.7334 3.35176 10.9127 3.60899 10.9127 3.89739C10.9127 3.89739 9.36154 3.85842 9.1199 3.78047L7.26474 3.16468L6.77367 4.64569L8.62883 5.26148C9.02636 5.39399 9.43949 5.46415 9.86041 5.46415H14.0306C14.3346 5.46415 14.6074 5.64343 14.7321 5.90065L10.1098 7.33489Z" fill="white"/>
</svg>
