<svg width="190" height="190" viewBox="0 0 190 190" fill="none" xmlns="http://www.w3.org/2000/svg">
<circle cx="94.7393" cy="94.7256" r="94.7256" fill="#F0F0F0"/>
<path d="M72.0136 139.593C65.568 136.31 59.899 131.689 55.383 126.038C54.5891 125.078 53.1729 124.931 52.1986 125.707C51.2242 126.484 51.0507 127.897 51.8088 128.886C56.732 135.051 62.9154 140.096 69.9445 143.681C70.2649 143.843 70.6189 143.928 70.9781 143.927C72.0341 143.926 72.9525 143.201 73.1984 142.174C73.4443 141.147 72.9545 140.085 72.0137 139.605L72.0136 139.593Z" fill="black"/>
<path d="M58.2637 53.755C54.2343 57.3406 50.755 61.4993 47.9347 66.0971C47.2766 67.1736 47.6143 68.5806 48.6918 69.2397C49.7683 69.8988 51.1753 69.5601 51.8344 68.4826C54.4189 64.2664 57.6094 60.4525 61.3032 57.1629C62.246 56.3232 62.3297 54.8783 61.4909 53.9357C60.6512 52.9929 59.2064 52.9082 58.2637 53.7479L58.2637 53.755Z" fill="black"/>
<path d="M141.968 73.8996C142.759 73.9016 143.495 73.4955 143.913 72.8252C144.331 72.1548 144.374 71.3151 144.025 70.6059C142.249 66.9858 140.079 63.5716 137.555 60.4259C136.764 59.4412 135.326 59.2841 134.341 60.0738C133.357 60.8646 133.199 62.3033 133.99 63.288C136.306 66.1715 138.3 69.301 139.932 72.6202C140.313 73.3977 141.102 73.8936 141.968 73.8997L141.968 73.8996Z" fill="black"/>
<path d="M130.867 136.002C133.734 133.49 136.333 130.686 138.622 127.637C139.379 126.627 139.175 125.195 138.164 124.438C137.154 123.681 135.722 123.885 134.965 124.895C132.865 127.689 130.48 130.26 127.85 132.563C126.977 133.411 126.923 134.796 127.727 135.71C128.531 136.624 129.911 136.748 130.864 135.991L130.867 136.002Z" fill="black"/>
<path d="M124.451 139.293C124.451 140.555 123.428 141.578 122.165 141.578C120.903 141.578 119.88 140.555 119.88 139.293C119.88 138.031 120.903 137.007 122.165 137.007C123.428 137.007 124.451 138.031 124.451 139.293Z" fill="black"/>
<path d="M102.884 26.1584H74.1691C72.3508 26.1584 70.6059 26.8808 69.3205 28.1665C68.0351 29.4521 67.3125 31.197 67.3125 33.015V58.75C67.3125 60.5693 68.0349 62.3132 69.3205 63.5986C70.6062 64.8842 72.3511 65.6066 74.1691 65.6066H76.7199C77.3342 67.18 78.5586 68.4371 80.1146 69.0932C81.6706 69.7503 83.4257 69.7503 84.9817 69.0932C86.5367 68.4372 87.7612 67.1801 88.3764 65.6066H111.597C112.213 67.18 113.437 68.4371 114.993 69.0932C116.548 69.7503 118.303 69.7503 119.859 69.0932C121.415 68.4372 122.64 67.1801 123.254 65.6066H127.377C127.983 65.6066 128.565 65.3658 128.993 64.9373C129.422 64.5087 129.662 63.9271 129.662 63.3211V49.6076C129.663 49.2872 129.596 48.9699 129.463 48.6781L124.548 37.6543C124.212 36.9033 123.667 36.2646 122.978 35.8146C122.289 35.3646 121.485 35.1228 120.662 35.1177H109.741V33.0148C109.741 31.1965 109.019 29.4516 107.733 28.1662C106.447 26.8808 104.704 26.1582 102.885 26.1582L102.884 26.1584ZM71.8835 33.0152C71.8835 31.753 72.9069 30.7296 74.1691 30.7296H102.884C103.49 30.7296 104.071 30.9704 104.5 31.3989C104.928 31.8275 105.169 32.4091 105.169 33.0152V37.3577V37.4128V49.0141H71.8835V33.0152ZM71.8835 58.7502V53.5853H105.161V61.0357H88.3932C87.7636 59.4726 86.5331 58.2257 84.9781 57.5758C83.4231 56.9258 81.6723 56.9258 80.1163 57.5758C78.5613 58.2257 77.3318 59.4726 76.7023 61.0357H74.1698C72.9076 61.0357 71.8842 60.0133 71.8842 58.7502H71.8835ZM82.5573 65.0132C81.8665 65.0183 81.241 64.605 80.9747 63.9673C80.7084 63.3296 80.8533 62.5949 81.342 62.1062C81.8297 61.6185 82.5654 61.4726 83.2021 61.7399C83.8398 62.0062 84.2531 62.6307 84.248 63.3214C84.2408 64.253 83.4878 65.006 82.5572 65.0132L82.5573 65.0132ZM117.413 65.0132C116.724 65.0081 116.106 64.5897 115.847 63.951C115.587 63.3133 115.739 62.5817 116.228 62.098C116.718 61.6144 117.452 61.4736 118.086 61.7419C118.721 62.0092 119.131 62.6327 119.127 63.3214C119.126 63.7745 118.944 64.2071 118.623 64.5254C118.301 64.8428 117.865 65.0183 117.413 65.0132ZM123.267 61.0357H123.266C122.637 59.4726 121.407 58.2257 119.853 57.5747C118.298 56.9248 116.547 56.9248 114.992 57.5747C113.436 58.2257 112.206 59.4726 111.578 61.0357H109.733V52.6486H125.092V61.0368L123.267 61.0357ZM120.45 39.689L124.192 48.0772H109.742V39.689H120.45Z" fill="black"/>
<path d="M161.02 81.0122H129.022C127.76 81.0122 126.736 82.0356 126.736 83.2978V115.296C126.736 115.902 126.977 116.483 127.406 116.912C127.834 117.341 128.416 117.581 129.022 117.581H161.02C161.626 117.581 162.208 117.341 162.636 116.912C163.065 116.483 163.305 115.902 163.305 115.296V83.2978C163.305 82.6917 163.065 82.1101 162.636 81.6816C162.208 81.253 161.626 81.0122 161.02 81.0122ZM148.888 85.5834V90.68H141.154V85.5834H148.888ZM158.734 113.01H131.307V85.5834H136.583V92.9656C136.583 93.5717 136.823 94.1533 137.252 94.5818C137.68 95.0104 138.262 95.2512 138.868 95.2512H151.173C151.779 95.2512 152.361 95.0104 152.79 94.5818C153.218 94.1533 153.459 93.5717 153.459 92.9656V85.5834H158.734L158.734 113.01Z" fill="black"/>
<path d="M28.4573 117.581H74.1688C74.7748 117.581 75.3564 117.34 75.785 116.912C76.2135 116.483 76.4543 115.902 76.4543 115.296V82.5609C76.4543 81.7651 76.0411 81.0274 75.3626 80.6121C74.685 80.1968 73.8392 80.1631 73.1311 80.5243L60.6309 86.8944L61.0146 82.7804H61.0156C61.0942 81.9417 60.7064 81.1285 60.0065 80.6622C59.3055 80.1958 58.4046 80.153 57.6627 80.5499L44.0494 87.8037L41.9423 69.3253C41.8107 68.1692 40.8322 67.2958 39.668 67.2979H30.9491C29.787 67.2989 28.8105 68.1713 28.6789 69.3253L26.1872 91.1432H26.1882C26.177 91.2289 26.1719 91.3146 26.1719 91.4014V115.295C26.1719 115.901 26.4127 116.483 26.8412 116.911C27.2698 117.34 27.8514 117.58 28.4574 117.58L28.4573 117.581ZM30.7429 91.5256L32.9877 71.8697H37.6293L39.8853 91.6604C39.97 92.4124 40.422 93.0736 41.0924 93.4266C41.7627 93.7786 42.5637 93.7766 43.231 93.4205L56.065 86.575L55.6966 90.6114C55.6191 91.441 55.9997 92.2481 56.6894 92.7154C57.3792 93.1837 58.2689 93.2388 59.0107 92.8603L71.8833 86.2914V113.01H30.743L30.7429 91.5256Z" fill="black"/>
<path d="M39.8846 103.868C39.8846 105.13 38.8612 106.154 37.599 106.154C36.3369 106.154 35.3135 105.13 35.3135 103.868C35.3135 102.606 36.3369 101.583 37.599 101.583C38.8612 101.583 39.8846 102.606 39.8846 103.868Z" fill="black"/>
<path d="M53.5985 103.868C53.5985 105.13 52.5751 106.154 51.3129 106.154C50.0508 106.154 49.0273 105.13 49.0273 103.868C49.0273 102.606 50.0508 101.583 51.3129 101.583C52.5751 101.583 53.5985 102.606 53.5985 103.868Z" fill="black"/>
<path d="M67.3124 103.868C67.3124 105.13 66.2889 106.154 65.0268 106.154C63.7646 106.154 62.7412 105.13 62.7412 103.868C62.7412 102.606 63.7646 101.583 65.0268 101.583C66.2889 101.583 67.3124 102.606 67.3124 103.868Z" fill="black"/>
<path d="M74.9229 163.293H115.308C115.914 163.293 116.496 163.052 116.925 162.624C117.353 162.195 117.594 161.614 117.594 161.007C117.669 156.324 116.412 151.715 113.969 147.719C111.525 143.723 107.996 140.504 103.792 138.438C103.85 138.124 103.879 137.807 103.88 137.489V128.644C103.88 124.889 100.024 121.948 95.1033 121.948C90.1822 121.948 86.3497 124.889 86.3497 128.644V137.49V137.489C86.3507 137.804 86.3793 138.118 86.4364 138.428C82.2315 140.496 78.7013 143.716 76.2574 147.714C73.8137 151.712 72.5577 156.322 72.6363 161.008C72.6363 161.614 72.8771 162.195 73.3056 162.624C73.7342 163.052 74.3158 163.293 74.9219 163.293L74.9229 163.293ZM90.922 128.644C90.922 127.798 92.5902 126.518 95.1044 126.518C97.6186 126.518 99.3104 127.798 99.3104 128.644V137.489V137.488C99.2869 137.758 99.1706 138.013 98.9808 138.206C97.8952 139.112 96.5249 139.609 95.1097 139.609C93.6946 139.609 92.3242 139.112 91.2376 138.206C91.0559 138.005 90.9447 137.749 90.9223 137.479L90.922 128.644ZM88.9588 142.298V142.297C90.776 143.518 92.9166 144.171 95.1063 144.171C97.295 144.171 99.4356 143.518 101.253 142.297C104.491 143.737 107.282 146.021 109.332 148.911C111.383 151.8 112.616 155.19 112.905 158.721H77.3288C77.6124 155.191 78.843 151.804 80.8898 148.913C82.9366 146.023 85.7243 143.738 88.9599 142.297L88.9588 142.298Z" fill="black"/>
</svg>
