<svg width="45" height="51" viewBox="0 0 45 51" fill="none" xmlns="http://www.w3.org/2000/svg">
<g clip-path="url(#clip0_6388_14285)">
<path d="M5.16239 45.1125C5.07798 45.0338 4.98478 44.9655 4.88472 44.9091C4.72874 44.8116 4.56752 44.7231 4.40183 44.644C4.20699 44.5547 4.00505 44.4825 3.79821 44.4282C3.57583 44.3668 3.34647 44.3358 3.11611 44.3358C2.79662 44.3151 2.47858 44.3947 2.20465 44.5639C2.10315 44.637 2.0216 44.7355 1.96773 44.8498C1.91387 44.9642 1.88945 45.0906 1.8968 45.2173C1.89281 45.3107 1.90793 45.4038 1.94119 45.4909C1.97445 45.5779 2.02512 45.6569 2.08996 45.7228C2.26602 45.8718 2.47215 45.9791 2.69358 46.0372C2.95314 46.1297 3.2972 46.2221 3.66541 46.3269C4.11694 46.4301 4.55614 46.583 4.97527 46.7831C5.29262 46.9456 5.56462 47.1873 5.76601 47.4859C5.97717 47.8305 6.08036 48.2326 6.06179 48.6387C6.07148 49.004 5.99269 49.3661 5.83241 49.6928C5.6927 49.9805 5.4853 50.2283 5.22879 50.4141C4.95424 50.6058 4.64723 50.7438 4.32336 50.821C3.96686 50.9036 3.60239 50.9449 3.23684 50.9443C2.85166 50.9447 2.46742 50.9054 2.08996 50.8271C1.71569 50.7456 1.34986 50.628 0.997405 50.4757C0.654126 50.3296 0.326445 50.1478 0.0195312 49.9333L0.677486 48.6202C0.786384 48.7142 0.901324 48.8007 1.02155 48.8791C1.21674 48.9974 1.41826 49.1044 1.62517 49.1997C1.87702 49.3101 2.13749 49.3987 2.40384 49.4647C2.68385 49.5384 2.97184 49.5756 3.26099 49.5757C3.57865 49.5958 3.8957 49.5276 4.17848 49.3784C4.27861 49.3131 4.35954 49.2213 4.41268 49.1127C4.46582 49.0042 4.48918 48.883 4.4803 48.762C4.48411 48.6568 4.46434 48.5522 4.42249 48.456C4.38064 48.3598 4.31783 48.2747 4.23885 48.2072C4.03211 48.0486 3.79898 47.9295 3.55072 47.8558C3.25294 47.7571 2.90283 47.6523 2.50042 47.5414C2.08258 47.4303 1.6778 47.2732 1.29317 47.0729C1.00156 46.921 0.752357 46.6962 0.568829 46.4194C0.397215 46.1212 0.313391 45.7787 0.327384 45.4331C0.311113 44.9552 0.444307 44.4845 0.70766 44.0892C0.962551 43.7216 1.31414 43.4352 1.72175 43.2631C2.1691 43.0732 2.64979 42.9788 3.13422 42.9857C3.47764 42.9826 3.82017 43.022 4.15434 43.1028C4.74684 43.2514 5.30886 43.506 5.8143 43.8549L5.16239 45.1125Z" fill="#7C7C7C"/>
<path d="M6.96982 48.7496V45.168H8.43058V48.4229C8.40737 48.7686 8.48961 49.1132 8.66599 49.4092C8.74759 49.52 8.85481 49.6084 8.97806 49.6665C9.10131 49.7246 9.23674 49.7506 9.37223 49.7421C9.56252 49.7411 9.75092 49.7034 9.92756 49.6312C10.1154 49.5506 10.2872 49.4357 10.4346 49.2921C10.5976 49.1262 10.7304 48.9321 10.827 48.7188V45.168H12.2877V49.2428C12.2783 49.3567 12.3036 49.4708 12.3602 49.5695C12.429 49.6408 12.5218 49.6826 12.6197 49.6866V50.9196C12.5 50.9427 12.3791 50.9592 12.2575 50.9689H11.998C11.7827 50.9743 11.5712 50.9095 11.3944 50.784C11.2346 50.6661 11.1262 50.4891 11.0926 50.2908L11.0624 49.8346C10.8215 50.2081 10.4884 50.5101 10.0966 50.71C9.6896 50.9154 9.24062 51.0189 8.78672 51.012C8.53604 51.0288 8.28499 50.9858 8.05344 50.8862C7.82189 50.7867 7.61622 50.6335 7.45272 50.4387C7.1036 49.9505 6.93276 49.353 6.96982 48.7496Z" fill="#7C7C7C"/>
<path d="M15.771 51.0001C15.2981 51.002 14.8285 50.9206 14.3827 50.7597C13.9582 50.6118 13.5722 50.3673 13.2539 50.0446L13.7791 49.0829C14.0735 49.3396 14.4055 49.5476 14.763 49.6993C15.0651 49.8284 15.3892 49.8955 15.7167 49.8966C15.9488 49.9072 16.1796 49.8562 16.3867 49.7487C16.4589 49.7075 16.5192 49.6477 16.5616 49.5752C16.604 49.5027 16.627 49.4201 16.6281 49.3356C16.6332 49.2728 16.6232 49.2097 16.599 49.1517C16.5748 49.0937 16.5372 49.0426 16.4893 49.0027C16.3685 48.9105 16.2311 48.8434 16.0849 48.8055L15.4451 48.6144C15.0886 48.5073 14.7397 48.3755 14.4008 48.2198C14.1625 48.1038 13.9553 47.9303 13.7972 47.7143C13.644 47.4911 13.5675 47.2223 13.5799 46.9499C13.5711 46.6018 13.6727 46.2602 13.8696 45.9759C14.0766 45.7015 14.3517 45.4887 14.6664 45.3595C15.0497 45.2014 15.4603 45.1238 15.8736 45.1314C16.2641 45.1302 16.6519 45.1969 17.0205 45.3286C17.3869 45.458 17.7209 45.6685 17.9984 45.9451L17.3947 46.8944C17.1518 46.6817 16.8792 46.5072 16.5859 46.3766C16.3346 46.2727 16.0663 46.2183 15.7951 46.2163C15.6505 46.2154 15.5064 46.2341 15.3666 46.2718C15.2466 46.302 15.1363 46.3637 15.0467 46.4506C15.0028 46.4983 14.969 46.5545 14.9472 46.616C14.9254 46.6775 14.9161 46.7429 14.9199 46.8081C14.9172 46.8657 14.9259 46.9233 14.9456 46.9774C14.9653 47.0314 14.9956 47.0808 15.0346 47.1225C15.1325 47.2164 15.2502 47.286 15.3786 47.326L15.9461 47.5232C16.3363 47.6293 16.7194 47.7611 17.0929 47.9178C17.3648 48.0257 17.6071 48.1991 17.7992 48.4233C17.9744 48.66 18.0601 48.9533 18.0406 49.2493C18.0521 49.5036 18.0032 49.7569 17.8981 49.9877C17.793 50.2185 17.6348 50.4199 17.437 50.5747C16.9424 50.8993 16.357 51.0488 15.771 51.0001Z" fill="#7C7C7C"/>
<path d="M22.3834 50.6059L21.9307 50.7847C21.7521 50.8514 21.5683 50.903 21.3814 50.9388C21.1829 50.9811 20.9806 51.0018 20.7778 51.0005C20.5214 51.0059 20.2667 50.9577 20.0293 50.8587C19.8112 50.7679 19.6257 50.6108 19.4981 50.4087C19.3559 50.1629 19.2867 49.8802 19.2989 49.5949V46.2907H18.5625V45.1687H19.2989V43.3193H20.7536V45.1687H21.9609V46.2907H20.7536V49.0894C20.7472 49.1656 20.7571 49.2422 20.7828 49.314C20.8084 49.3858 20.8491 49.451 20.902 49.505C20.9549 49.5591 21.0188 49.6006 21.0891 49.6268C21.1594 49.653 21.2344 49.6632 21.309 49.6566C21.4558 49.6547 21.601 49.6254 21.7375 49.5703C21.859 49.5281 21.9779 49.4787 22.0937 49.4223L22.3834 50.6059Z" fill="#7C7C7C"/>
<path d="M22.7496 49.2001C22.7434 48.8514 22.8518 48.5106 23.0575 48.2322C23.2829 47.9536 23.5766 47.7409 23.9086 47.6157C24.3118 47.4528 24.7426 47.3732 25.1762 47.3815C25.4187 47.3816 25.6608 47.4001 25.9005 47.437C26.1203 47.4656 26.3354 47.5237 26.5404 47.6096V47.2952C26.5483 47.1427 26.5244 46.9901 26.4703 46.8477C26.4162 46.7053 26.3331 46.5763 26.2265 46.4691C25.958 46.2579 25.6229 46.1548 25.2848 46.1794C24.9795 46.1774 24.6765 46.2339 24.3915 46.3458C24.0793 46.4699 23.7817 46.6291 23.5042 46.8205L23.0514 45.8588C23.3975 45.6089 23.7806 45.4174 24.1862 45.2917C24.5874 45.1677 25.0045 45.1054 25.4237 45.1067C26.1061 45.0688 26.7785 45.2882 27.313 45.7232C27.5432 45.946 27.7225 46.2178 27.8383 46.5193C27.9541 46.8208 28.0035 47.1446 27.983 47.4678V49.2864C27.9737 49.4019 28.0035 49.5173 28.0675 49.6131C28.1382 49.6853 28.2332 49.7271 28.3331 49.7302V50.9631L27.983 51.0186C27.8949 51.0302 27.8056 51.0302 27.7174 51.0186C27.4829 51.0363 27.2498 50.9686 27.0595 50.8275C26.9172 50.706 26.8246 50.5344 26.7999 50.3467L26.7637 50.0508C26.5154 50.3629 26.2027 50.6154 25.848 50.7901C25.4933 50.9649 25.1052 51.0576 24.7114 51.0618C24.3611 51.0677 24.0148 50.9851 23.7033 50.8214C23.4217 50.6812 23.1804 50.4688 23.0031 50.2049C22.8156 49.9063 22.7267 49.5541 22.7496 49.2001ZM26.2687 49.4775C26.3476 49.4083 26.4132 49.3247 26.4619 49.2309C26.505 49.1598 26.5318 49.0797 26.5404 48.9966V48.4233C26.3577 48.3532 26.17 48.2976 25.979 48.2569C25.7898 48.2212 25.5979 48.2027 25.4056 48.2014C25.0814 48.188 24.7604 48.2715 24.482 48.4418C24.3749 48.5042 24.2853 48.5937 24.2219 48.7016C24.1585 48.8096 24.1233 48.9324 24.1198 49.0583C24.1203 49.2041 24.16 49.347 24.2345 49.4713C24.3172 49.6078 24.4366 49.717 24.5786 49.7857C24.7468 49.8725 24.9335 49.9148 25.1219 49.909C25.3413 49.9084 25.5586 49.8644 25.7617 49.7795C25.9537 49.7132 26.1318 49.6107 26.2868 49.4775H26.2687Z" fill="#7C7C7C"/>
<path d="M29.3359 44.2927V42.8379H30.7726V44.2927H29.3359ZM29.3359 50.8889V45.1126H30.7726V50.8889H29.3359Z" fill="#7C7C7C"/>
<path d="M37.3538 50.8894H35.9051V47.6961C35.931 47.3471 35.8509 46.9983 35.6757 46.6975C35.5994 46.5924 35.4989 46.5081 35.383 46.4522C35.2672 46.3963 35.1397 46.3704 35.0117 46.3769C34.8015 46.3794 34.5948 46.4322 34.4081 46.531C34.2075 46.6339 34.0274 46.7739 33.8769 46.944C33.7237 47.1277 33.6013 47.336 33.5147 47.5605V50.8956H32.0781V45.1748H33.388V46.2536C33.5287 46.0125 33.7155 45.8029 33.9373 45.6371C34.1719 45.4669 34.4303 45.3339 34.7039 45.2426C35.0049 45.1472 35.3183 45.0994 35.6335 45.1008C35.9343 45.0897 36.233 45.1554 36.5027 45.2919C36.7212 45.4095 36.9016 45.5894 37.0218 45.8097C37.1453 46.0356 37.229 46.2818 37.2693 46.5372C37.3176 46.8014 37.3418 47.0697 37.3417 47.3386L37.3538 50.8894Z" fill="#7C7C7C"/>
<path d="M38.7344 50.8886V43.0596H40.2253V50.8886H38.7344Z" fill="#7C7C7C"/>
<path d="M45.0006 50.6059L44.5539 50.7847C44.3732 50.8514 44.1875 50.9029 43.9986 50.9388C43.8002 50.9817 43.5978 51.0024 43.395 51.0005C43.1406 51.0059 42.8878 50.9577 42.6525 50.8587C42.4328 50.768 42.2454 50.611 42.1153 50.4087C41.9731 50.1629 41.9039 49.8802 41.9161 49.5949V46.2907H41.1797V45.1687H41.9161V43.3193H43.3769V45.1687H44.5841V46.2907H43.3769V49.0894C43.3683 49.1655 43.3766 49.2425 43.4011 49.3149C43.4256 49.3872 43.4657 49.453 43.5184 49.5074C43.5711 49.5619 43.6351 49.6035 43.7057 49.6293C43.7763 49.6551 43.8516 49.6644 43.9262 49.6566C44.073 49.6547 44.2182 49.6254 44.3547 49.5703C44.4762 49.5281 44.5951 49.4787 44.7109 49.4223L45.0006 50.6059Z" fill="#7C7C7C"/>
<path d="M0.296875 14.6717C0.296875 14.6717 6.58058 37.0062 22.1661 37.0062H35.8019C35.8019 37.0062 33.0977 7.07075 0.296875 14.6717Z" fill="#B9B9B9"/>
<path opacity="0.72" d="M15.3263 0.0185547C15.3263 0.0185547 10.0929 22.6366 23.6865 30.4287L35.5718 37.2468C35.5718 37.2468 47.5718 9.77717 15.3263 0.0185547Z" fill="#E4E4E4"/>
</g>
<defs>
<clipPath id="clip0_6388_14285">
<rect width="45" height="51" fill="white"/>
</clipPath>
</defs>
</svg>
