<svg width="19" height="23" viewBox="0 0 19 23" fill="none" xmlns="http://www.w3.org/2000/svg">
<path fill-rule="evenodd" clip-rule="evenodd" d="M13.8125 0V1.47954H18.125V4.31754H0.875V1.47954H5.1875V0H13.8125ZM0.875 19.7988C0.875 21.5653 2.3125 23 4.0827 23H14.9131C16.6833 23 18.1208 21.5653 18.1208 19.7988V5.78363H0.875V19.7988ZM3.75 8.65302H15.25V19.0635C15.25 19.6509 14.7699 20.1306 14.1803 20.1306H4.8197C4.2301 20.1306 3.75 19.6509 3.75 19.0635V8.65302ZM10.9375 10.0429H13.8125V18.6511H10.9375V10.0429ZM8.0625 10.0429H5.1875V18.6511H8.0625V10.0429Z" fill="#6B6C7E"/>
</svg>
